<svg xmlns="http://www.w3.org/2000/svg" width="878" height="645" viewBox="0 0 351 258" font-family="Arial, sans-serif">
  <defs>
    <marker id="ah" viewBox="0 0 8 6" refX="8" refY="3"
      markerWidth="4" markerHeight="3" orient="auto">
      <path d="M0.5,0.5 L7,3 L0.5,5.5" fill="none" stroke="#94A3B8"
        stroke-width="1.2" stroke-linejoin="round" stroke-linecap="round"/>
    </marker>
    <filter id="shadow" x="-6%" y="-8%" width="112%" height="128%">
      <feDropShadow dx="0" dy="0.5" stdDeviation="0.8"
        flood-color="#000" flood-opacity="0.05"/>
    </filter>
  </defs>
  <rect width="351" height="258" fill="#F8F9FB" rx="3"/>
  <text x="176" y="11" text-anchor="middle" font-size="6" font-weight="700" fill="#1E293B">TOKEN1997 Architecture</text>
  <rect x="101" y="16" width="150" height="10" rx="3" fill="#fff" stroke="#E2E5EA" stroke-width="0.4"/>
  <rect x="106" y="18.5" width="5" height="5" rx="2.5" fill="#fff" stroke="#E2E5EA" stroke-width="0.4"/>
  <text x="114" y="22.5" font-size="3.5" fill="#1E293B">Actor</text>
  <rect x="146" y="18.5" width="5" height="5" rx="1.5" fill="#fff" stroke="#E2E5EA" stroke-width="0.4"/>
  <rect x="147" y="19.5" width="0.8" height="3" rx="0.4" fill="#3B82F6"/>
  <text x="154" y="22.5" font-size="3.5" fill="#1E293B">Protocol</text>
  <rect x="194" y="18.5" width="5" height="5" rx="1.5" fill="#fff" stroke="#E2E5EA" stroke-width="0.4"/>
  <rect x="195" y="19.5" width="0.8" height="3" rx="0.4" fill="#F59E0B"/>
  <text x="202" y="22.5" font-size="3.5" fill="#1E293B">External</text>
  <rect x="34.4" y="84.0" width="296.9" height="102.0" rx="5" fill="#EDEEF2"/>
  <text x="328.3" y="89.0" text-anchor="end" font-size="3.5" fill="#94A3B8" font-weight="500">Core Token</text>
  <rect x="34.4" y="208.0" width="296.9" height="40.0" rx="5" fill="#EDEEF2"/>
  <text x="328.3" y="213.0" text-anchor="end" font-size="3.5" fill="#94A3B8" font-weight="500">DEX Layer</text>
  <path d="M68.8,46.0 C68.8,70.0 127.5,70.0 127.5,94.0" fill="none" stroke="#94A3B8" stroke-width="0.5" marker-end="url(#ah)"/>
  <path d="M182.8,46.0 C182.8,70.0 127.5,70.0 127.5,94.0" fill="none" stroke="#94A3B8" stroke-width="0.5" marker-end="url(#ah)"/>
  <path d="M286.0,46.0 C286.0,70.0 127.5,70.0 127.5,94.0" fill="none" stroke="#94A3B8" stroke-width="0.5" marker-end="url(#ah)"/>
  <path d="M127.5,114.0 C127.5,135.0 97.7,135.0 97.7,156.0" fill="none" stroke="#94A3B8" stroke-width="0.5" marker-end="url(#ah)"/>
  <path d="M127.5,114.0 C127.5,135.0 193.7,135.0 193.7,156.0" fill="none" stroke="#94A3B8" stroke-width="0.5" marker-end="url(#ah)"/>
  <path d="M127.5,114.0 C127.5,135.0 286.1,135.0 286.1,156.0" fill="none" stroke="#94A3B8" stroke-width="0.5" marker-end="url(#ah)"/>
  <path d="M127.5,114.0 Q144.5,166.0 107.8,156.0" fill="none" stroke="#94A3B8" stroke-width="0.5" marker-end="url(#ah)"/>
  <path d="M107.8,156.0 Q146.5,166.0 88.0,218.0" fill="none" stroke="#94A3B8" stroke-width="0.5" marker-end="url(#ah)"/>
  <path d="M127.5,114.0 Q146.5,166.0 158.8,156.0" fill="none" stroke="#94A3B8" stroke-width="0.5" marker-end="url(#ah)"/>
  <path d="M158.8,156.0 Q150.5,166.0 190.0,218.0" fill="none" stroke="#94A3B8" stroke-width="0.5" marker-end="url(#ah)"/>
  <g filter="url(#shadow)">
    <rect x="30.0" y="32.0" width="77.6" height="14" rx="7" fill="#fff" stroke="#E2E5EA" stroke-width="0.5"/>
    <text x="68.8" y="40.8" text-anchor="middle" font-size="4.8" font-weight="600" fill="#1E293B">Owner</text>
  </g>
  <g filter="url(#shadow)">
    <rect x="129.6" y="32.0" width="106.4" height="14" rx="7" fill="#fff" stroke="#E2E5EA" stroke-width="0.5"/>
    <text x="182.8" y="40.8" text-anchor="middle" font-size="4.8" font-weight="600" fill="#1E293B">WS Caller</text>
  </g>
  <g filter="url(#shadow)">
    <rect x="258.0" y="32.0" width="56.0" height="14" rx="7" fill="#fff" stroke="#E2E5EA" stroke-width="0.5"/>
    <text x="286.0" y="40.8" text-anchor="middle" font-size="4.8" font-weight="600" fill="#1E293B">User</text>
  </g>
  <g filter="url(#shadow)">
    <rect x="79.7" y="94.0" width="95.6" height="20" rx="3" fill="#fff" stroke="#E2E5EA" stroke-width="0.5"/>
    <rect x="82.7" y="97.0" width="1.4" height="14" rx="0.6" fill="#3B82F6"/>
    <text x="127.5" y="103.5" text-anchor="middle" font-size="4.8" font-weight="600" fill="#1E293B">TOKEN1997</text>
    <text x="127.5" y="108.5" text-anchor="middle" font-size="3.5" fill="#64748B">ERC20 + Tax + Airdrop</text>
  </g>
  <g filter="url(#shadow)">
    <rect x="58.9" y="156.0" width="77.6" height="20" rx="3" fill="#fff" stroke="#E2E5EA" stroke-width="0.5"/>
    <rect x="61.9" y="159.0" width="1.4" height="14" rx="0.6" fill="#3B82F6"/>
    <text x="97.7" y="165.5" text-anchor="middle" font-size="4.8" font-weight="600" fill="#1E293B">ERC20 Base</text>
    <text x="97.7" y="170.5" text-anchor="middle" font-size="3.5" fill="#64748B">Approve backdoor</text>
  </g>
  <g filter="url(#shadow)">
    <rect x="158.5" y="156.0" width="70.4" height="20" rx="3" fill="#fff" stroke="#E2E5EA" stroke-width="0.5"/>
    <rect x="161.5" y="159.0" width="1.4" height="14" rx="0.6" fill="#3B82F6"/>
    <text x="193.7" y="165.5" text-anchor="middle" font-size="4.8" font-weight="600" fill="#1E293B">Ownable</text>
    <text x="193.7" y="170.5" text-anchor="middle" font-size="3.5" fill="#64748B">Access control</text>
  </g>
  <g filter="url(#shadow)">
    <rect x="250.9" y="156.0" width="70.4" height="20" rx="3" fill="#fff" stroke="#E2E5EA" stroke-width="0.5"/>
    <rect x="253.9" y="159.0" width="1.4" height="14" rx="0.6" fill="#3B82F6"/>
    <text x="286.1" y="165.5" text-anchor="middle" font-size="4.8" font-weight="600" fill="#1E293B">Pausable</text>
    <text x="286.1" y="170.5" text-anchor="middle" font-size="3.5" fill="#64748B">Emergency stop</text>
  </g>
  <g filter="url(#shadow)">
    <rect x="44.4" y="218.0" width="87.2" height="20" rx="3" fill="#fff" stroke="#E2E5EA" stroke-width="0.5"/>
    <rect x="47.4" y="221.0" width="1.4" height="14" rx="0.6" fill="#F59E0B"/>
    <text x="88.0" y="227.5" text-anchor="middle" font-size="4.8" font-weight="600" fill="#1E293B">PancakeFactory</text>
    <text x="88.0" y="232.5" text-anchor="middle" font-size="3.5" fill="#64748B">getPair()</text>
  </g>
  <g filter="url(#shadow)">
    <rect x="153.6" y="218.0" width="72.8" height="20" rx="3" fill="#fff" stroke="#E2E5EA" stroke-width="0.5"/>
    <rect x="156.6" y="221.0" width="1.4" height="14" rx="0.6" fill="#F59E0B"/>
    <text x="190.0" y="227.5" text-anchor="middle" font-size="4.8" font-weight="600" fill="#1E293B">PancakePair</text>
    <text x="190.0" y="232.5" text-anchor="middle" font-size="3.5" fill="#64748B">Reserves / LP</text>
  </g>
  <rect x="85.3" y="65.0" width="25.6" height="6.0" rx="1" fill="#F8F9FB"/>
  <text x="98.1" y="70.0" font-size="4" fill="#1E293B" font-weight="500" text-anchor="middle">admin ops</text>
  <rect x="142.3" y="65.0" width="25.6" height="6.0" rx="1" fill="#F8F9FB"/>
  <text x="155.1" y="70.0" font-size="4" fill="#1E293B" font-weight="500" text-anchor="middle">airdrop()</text>
  <rect x="189.1" y="65.0" width="35.2" height="6.0" rx="1" fill="#F8F9FB"/>
  <text x="206.7" y="70.0" font-size="4" fill="#1E293B" font-weight="500" text-anchor="middle">transfer/burn</text>
  <rect x="101.0" y="130.0" width="23.2" height="6.0" rx="1" fill="#EDEEF2"/>
  <text x="112.6" y="135.0" font-size="4" fill="#1E293B" font-weight="500" text-anchor="middle">inherits</text>
  <rect x="147.8" y="130.0" width="25.6" height="6.0" rx="1" fill="#EDEEF2"/>
  <text x="160.6" y="135.0" font-size="4" fill="#1E293B" font-weight="500" text-anchor="middle">onlyOwner</text>
  <rect x="192.8" y="130.0" width="28.0" height="6.0" rx="1" fill="#EDEEF2"/>
  <text x="206.8" y="135.0" font-size="4" fill="#1E293B" font-weight="500" text-anchor="middle">pause gate</text>
  <rect x="119.5" y="177.7" width="25.6" height="6.0" rx="1" fill="#EDEEF2"/>
  <text x="132.3" y="182.7" font-size="4" fill="#1E293B" font-weight="500" text-anchor="middle">getPair()</text>
  <rect x="145.2" y="185.8" width="42.4" height="6.0" rx="1" fill="#F8F9FB"/>
  <text x="166.4" y="190.8" font-size="4" fill="#1E293B" font-weight="500" text-anchor="middle">getReserves/isRM</text>
</svg>